<?xml version="1.0" encoding="UTF-8" standalone="no"?>
<!-- Created with Inkscape (http://www.inkscape.org/) -->

<svg
   width="256"
   height="256"
   viewBox="0 0 67.733333 67.733333"
   version="1.1"
   id="svg1"
   xml:space="preserve"
   inkscape:version="1.4 (86a8ad7, 2024-10-11)"
   sodipodi:docname="favicon.svg"
   xmlns:inkscape="http://www.inkscape.org/namespaces/inkscape"
   xmlns:sodipodi="http://sodipodi.sourceforge.net/DTD/sodipodi-0.dtd"
   xmlns="http://www.w3.org/2000/svg"
   xmlns:svg="http://www.w3.org/2000/svg"><sodipodi:namedview
     id="namedview1"
     pagecolor="#ffffff"
     bordercolor="#111111"
     borderopacity="1"
     inkscape:showpageshadow="0"
     inkscape:pageopacity="0"
     inkscape:pagecheckerboard="false"
     inkscape:deskcolor="#d1d1d1"
     inkscape:document-units="px"
     inkscape:zoom="0.59714112"
     inkscape:cx="-782.05969"
     inkscape:cy="76.196394"
     inkscape:window-width="2560"
     inkscape:window-height="1361"
     inkscape:window-x="-9"
     inkscape:window-y="-9"
     inkscape:window-maximized="1"
     inkscape:current-layer="svg1" /><defs
     id="defs1" /><g
     inkscape:label="Layer 1"
     inkscape:groupmode="layer"
     id="layer1"><circle
       style="opacity:1;fill:#047878;stroke:#047878;stroke-width:0.26405417;stroke-opacity:1;fill-opacity:1;stroke-dasharray:none"
       id="path2"
       cx="33.866665"
       cy="33.866665"
       r="33.734684" /></g><g
     style="fill:#047878;fill-opacity:1;stroke:#ffffff;stroke-opacity:1"
     id="g1"
     transform="matrix(0.17768487,0,0,0.17768487,-1.6730348,-1.7240534)"><g
       stroke="#000000"
       stroke-linecap="round"
       stroke-linejoin="round"
       stroke-opacity="0.9"
       stroke-width="16"
       id="g4"
       style="fill:#047878;fill-opacity:1;stroke:#ffffff;stroke-opacity:1"><path
         d="m 74,211.658 c 25.0457,-69.407 81.836,-124.5266 152.717,-102.893 49.46,15.096 28.711,43.227 47.931,61.721 10.844,8.343 40.285,-2.855 47.9,7.561 6.732,9.212 1.868,26.018 0,37.05 -7.369,43.5 -57.235,49.903 -99.483,49.903"
         id="path1"
         style="fill:#047878;fill-opacity:1;stroke:#ffffff;stroke-opacity:1" /><path
         d="m 325,194 c -3.482,-6.608 -11.428,-12.786 -21,-18"
         id="path2-0"
         style="fill:#047878;fill-opacity:1;stroke:#ffffff;stroke-opacity:1" /><path
         d="m 132.242,181.22 c -2.514,13.688 -41.2689,106.923 -1.147,114.866 74.513,10.644 65.57,-74.115 65.57,-127.086"
         id="path3"
         style="fill:#047878;fill-opacity:1;stroke:#ffffff;stroke-opacity:1" /><path
         d="m 234,168 v 5"
         id="path4"
         style="fill:#047878;fill-opacity:1;stroke:#ffffff;stroke-opacity:1" /></g></g></svg>
